 <svg width="14" height="16" viewBox="0 0 14 16" fill="currentColor" xmlns="http://www.w3.org/2000/svg">
                    <path d="M5.95312 2.09058L6.64687 1.39683C6.94062 1.10308 7.41563 1.10308 7.70625 1.39683L13.7812 7.4687C14.075 7.76245 14.075 8.23745 13.7812 8.52808L7.70625 14.6031C7.4125 14.8968 6.9375 14.8968 6.64687 14.6031L5.95312 13.9093C5.65625 13.6125 5.6625 13.1281 5.96562 12.8375L9.73125 9.24995H0.75C0.334375 9.24995 0 8.91558 0 8.49995V7.49995C0 7.08433 0.334375 6.74995 0.75 6.74995H9.73125L5.96562 3.16245C5.65937 2.87183 5.65312 2.38745 5.95312 2.09058Z"/>
                </svg>